<svg xmlns="http://www.w3.org/2000/svg" width="42" height="27" viewBox="0 0 42 27">
    <path d="M33.6 11.4c-1.1-3.2-4-5.3-7.4-5.3-.6 0-1.2.1-1.8.2C22.7 3 19.3.9 15.5.9c-5.5 0-10 4.5-10 10v.6c-3 .9-5.2 3.8-5.2 7.1s1.6 5.7 4.9 7.3c1.3.7 2.5 1 3.4 1h24.3c4.9-.2 8.8-3.6 8.8-7.8 0-3.9-3.5-7.2-8.1-7.7zm-.7 13.5H8.6c-.6 0-1.5-.3-2.6-.8-2.5-1.2-3.7-3-3.7-5.5 0-2.6 1.9-4.9 4.5-5.3l1-.2-.2-1c-.1-.4-.1-.7-.1-1.2 0-4.4 3.6-8 8-8 3.2 0 6.2 2 7.4 5l.3.8.8-.2c.8-.2 1.5-.4 2.2-.4 2.7 0 4.9 1.8 5.6 4.5l.2.7h.7c3.8.2 6.9 2.8 6.9 5.8.1 3.1-2.9 5.6-6.7 5.8z"></path>
</svg>