<svg xmlns="http://www.w3.org/2000/svg" viewBox="0 0 512 512"><path d="m351.815 433.551 145.439-42.383V120.699c0-77.056-145.428-40.335-145.428 42.916v69.817l3.154.542v177.357l-3.154-.502v22.723h-.01zM169.431 183.757c53.033-2.581 95.744-4.117 148.265.542 11.561 1.075 12.175 2.078 23.695 3.635l.512 35.605c-76.861-13.261-142.439-16.784-175.125-8.857l2.652-30.925zM14.745 433.551l74.291-20.962c-23.685 2.079-35.953 6.615-60.078 9.718 0-31.038-.02-66.837-.02-97.843V219.392c41.493-6.236 82.422-11.397 123.362-12.903l3.676-28.918h4.198V133.13c0-77.076-145.429-40.356-145.429 42.916v257.505zm22.59-195.993v173.773c52.49-7.26 105.502-12.943 158.024-12.943 49.346 0 98.703 5.182 148.603 11.356V236.555c-49.899-6.718-99.246-11.899-148.603-11.899-52.531-.522-105.543 5.703-158.024 12.903zm51.988 3.656c4.188 0 7.322 3.082 7.322 7.219v142.213c0 3.604-3.133 6.717-7.322 6.717-4.249 0-7.373-3.123-7.373-6.717V248.433c0-4.137 3.123-7.219 7.373-7.219zm67.165-3.154c4.219 0 7.352 3.164 7.352 6.758V386.99c0 4.178-3.133 7.26-7.352 7.26-4.188 0-7.311-3.082-7.311-7.26V244.818c0-3.605 3.123-6.758 7.311-6.758zm67.246 0c4.167 0 7.844 3.164 7.844 6.758V386.99c0 4.178-3.666 7.26-7.844 7.26-3.696 0-7.393-3.082-7.393-7.26V244.818c0-3.605 3.686-6.758 7.393-6.758zm67.696 4.157c3.666 0 7.383 3.123 7.383 7.239v142.233c0 3.635-3.707 6.697-7.383 6.697-4.199 0-7.363-3.062-7.363-6.697V249.456c0-4.126 3.164-7.239 7.363-7.239z"/></svg>