<svg xmlns="http://www.w3.org/2000/svg" viewBox="0 0 512 512" style="enable-background:new 0 0 512 512" xml:space="preserve"><path d="M117.9 493.3h276.2v-43H117.9zM267 58.4v75.9h127.1V58.4H267zm116.9 64.7H277.5V70.9h106.4v52.2zM117.9 18.7v31.5h276.2V18.7zM117.9 58.4v75.9h128.4V58.4H117.9zm117.8 64.7H129.4V70.9h106.4v52.2zM117.9 442.1h276.2v-298H117.9v298zm9.5-7.8V199.8c5 11.5 15.2 20.4 30.2 27.2 14.7 6.7 31 7.5 48.5 2.5 7.7 8 22.4 13.3 44.2 16 22 2.7 38-1 48.2-11.5 10.8 11 24 18.5 40.2 23 16.2 4.7 32.2 6 48 4.5v172.8H127.4zm259.2-283.4v80.4c-30 3.5-59.5-6.4-88.2-30.4-9.7 11.2-23.2 17.7-41 19.2-17.5 1.8-31.7-5-42.7-20.2-23 6.2-42 4-57.2-7-15-10.8-25.2-24.7-30.2-42h259.3z"/></svg>