<svg xmlns="http://www.w3.org/2000/svg" viewBox="0 0 512 512" style="enable-background:new 0 0 512 512" xml:space="preserve"><path d="M407 363.8c-.8-61.2-59.9-189-156.8-283 81.4 143.2-11.1 228.4-53.8 263.4-47.7 66 5 151 74.4 155.4 69.5 4.4 137.4-54.1 136.2-135.8zM265.4 469.4v-27.2c44.9 0 81.4-43.1 81.4-96.1h26.9c0 68-48.6 123.3-108.3 123.3z"/><path d="M252.8 185.8C248.3 146.2 201.5 67 132 12.2c62.4 87.8 7.4 149.1-18.3 174.5-27 46 13 97.7 58.7 96.1 45.7-1.6 86.4-44 80.4-97zm-85.9 77.7-1.7-17.6c29.4-2.9 50.5-33.2 47.1-67.6l17.6-1.8c4.3 44.1-24 83.2-63 87z"/></svg>